<svg width="1259" height="407" viewBox="0 0 1259 407" fill="none" xmlns="http://www.w3.org/2000/svg">
<rect width="1259" height="407" fill="#0F055F"/>
<ellipse cx="562.5" cy="347.422" rx="6.5" ry="5.05077" fill="#FFEC00"/>
<ellipse cx="493.5" cy="376.949" rx="6.5" ry="5.05077" fill="#295CFF"/>
<ellipse cx="601.5" cy="200.561" rx="4.5" ry="3.49669" fill="#F04566"/>
<ellipse cx="769.5" cy="349.753" rx="3.5" ry="2.71965" fill="#40FFAE"/>
<ellipse rx="4.55063" ry="7.37926" transform="matrix(0.00909247 -0.999959 0.99999 0.00457114 971.421 285.569)" fill="white"/>
<ellipse rx="4.55065" ry="7.37927" transform="matrix(0.0104545 -0.999945 0.999992 0.00397558 1003.43 169.785)" fill="#FFEC00"/>
<ellipse rx="4.55065" ry="7.37927" transform="matrix(0.0104545 -0.999945 0.999992 0.00397558 1222.19 196.736)" fill="#295CFF"/>
<ellipse rx="3.15045" ry="5.10873" transform="matrix(0.0104545 -0.999945 0.999992 0.00397558 1136.62 128.487)" fill="#F04566"/>
<ellipse rx="4.55063" ry="7.37926" transform="matrix(0.00909247 -0.999959 0.99999 0.00457114 671.421 264.819)" fill="white"/>
<ellipse rx="4.55065" ry="7.37927" transform="matrix(0.0104545 -0.999945 0.999992 0.00397558 833.427 237.388)" fill="#FFEC00"/>
<ellipse rx="3.15045" ry="5.10873" transform="matrix(0.0104545 -0.999945 0.999992 0.00397558 863.622 124.861)" fill="#F04566"/>
<ellipse rx="2.45035" ry="3.97346" transform="matrix(0.0104545 -0.999945 0.999992 0.00397558 1109.24 32.466)" fill="#40FFAE"/>
<ellipse rx="5.4705" ry="5.28035" transform="matrix(1 0 0 -1 84.542 56.1502)" fill="#FFEC00"/>
<ellipse rx="5.4705" ry="5.28035" transform="matrix(1 0 0 -1 26.4705 25.2804)" fill="#295CFF"/>
<ellipse rx="3.78727" ry="3.65563" transform="matrix(1 0 0 -1 117.365 209.687)" fill="#F04566"/>
<ellipse rx="2.94566" ry="2.84327" transform="matrix(1 0 0 -1 258.757 53.7131)" fill="#40FFAE"/>
<ellipse rx="4.7574" ry="6.21054" transform="matrix(0.00731976 0.999973 0.999984 -0.00567824 428.696 120.815)" fill="white"/>
<ellipse rx="4.75741" ry="6.21054" transform="matrix(0.00841625 0.999965 0.999988 -0.00493844 455.633 241.861)" fill="#FFEC00"/>
<ellipse rx="4.75741" ry="6.21054" transform="matrix(0.00841625 0.999965 0.999988 -0.00493844 639.749 213.685)" fill="#295CFF"/>
<ellipse rx="3.29359" ry="4.29961" transform="matrix(0.00841625 0.999965 0.999988 -0.00493844 567.733 285.036)" fill="#F04566"/>
<ellipse rx="4.7574" ry="6.21054" transform="matrix(0.00731976 0.999973 0.999984 -0.00567824 176.211 142.507)" fill="white"/>
<ellipse rx="4.75741" ry="6.21054" transform="matrix(0.00841625 0.999965 0.999988 -0.00493844 312.558 171.185)" fill="#FFEC00"/>
<ellipse rx="3.29359" ry="4.29961" transform="matrix(0.00841625 0.999965 0.999988 -0.00493844 337.971 288.827)" fill="#F04566"/>
<ellipse rx="2.56168" ry="3.34414" transform="matrix(0.00841625 0.999965 0.999988 -0.00493844 544.69 385.422)" fill="#40FFAE"/>
<ellipse rx="3.7462" ry="3.28587" transform="matrix(1 0 0 -1 845.514 46.4956)" fill="#FFEC00"/>
<ellipse rx="3.7462" ry="3.28587" transform="matrix(1 0 0 -1 805.746 27.2859)" fill="#295CFF"/>
<ellipse rx="2.59352" ry="2.27484" transform="matrix(1 0 0 -1 867.991 142.039)" fill="#F04566"/>
<ellipse rx="2.01719" ry="1.76932" transform="matrix(1 0 0 -1 964.816 44.9791)" fill="#40FFAE"/>
<ellipse rx="2.96047" ry="4.25297" transform="matrix(0.00805509 0.999968 0.999987 -0.00515987 1081.19 86.7352)" fill="white"/>
<ellipse rx="2.96047" ry="4.25297" transform="matrix(0.00926171 0.999957 0.99999 -0.00448761 1099.64 162.06)" fill="#FFEC00"/>
<ellipse rx="2.96047" ry="4.25297" transform="matrix(0.00926171 0.999957 0.99999 -0.00448761 1225.72 144.527)" fill="#295CFF"/>
<ellipse rx="2.04956" ry="2.94436" transform="matrix(0.00926171 0.999957 0.99999 -0.00448761 1176.4 188.927)" fill="#F04566"/>
<ellipse rx="2.96047" ry="4.25297" transform="matrix(0.00805509 0.999968 0.999987 -0.00515987 908.289 100.234)" fill="white"/>
<ellipse rx="2.96047" ry="4.25297" transform="matrix(0.00926171 0.999957 0.99999 -0.00448761 1001.66 118.08)" fill="#FFEC00"/>
<ellipse rx="2.04956" ry="2.94436" transform="matrix(0.00926171 0.999957 0.99999 -0.00448761 1019.06 191.286)" fill="#F04566"/>
<ellipse rx="1.5941" ry="2.29006" transform="matrix(0.00926171 0.999957 0.99999 -0.00448761 1160.62 251.396)" fill="#40FFAE"/>
<ellipse rx="5.4705" ry="5.28035" transform="matrix(1 0 0 -1 520.542 45.1502)" fill="#FFEC00"/>
<ellipse rx="5.4705" ry="5.28035" transform="matrix(1 0 0 -1 462.471 14.2804)" fill="#295CFF"/>
<ellipse rx="3.78727" ry="3.65563" transform="matrix(1 0 0 -1 553.365 198.687)" fill="#F04566"/>
<ellipse rx="2.94566" ry="2.84327" transform="matrix(1 0 0 -1 694.757 42.7131)" fill="#40FFAE"/>
<ellipse rx="4.7574" ry="6.21054" transform="matrix(0.00731976 0.999973 0.999984 -0.00567824 864.696 109.815)" fill="white"/>
<ellipse rx="4.75741" ry="6.21054" transform="matrix(0.00841625 0.999965 0.999988 -0.00493844 891.633 230.861)" fill="#FFEC00"/>
<ellipse rx="4.75741" ry="6.21054" transform="matrix(0.00841625 0.999965 0.999988 -0.00493844 1075.75 202.685)" fill="#295CFF"/>
<ellipse rx="3.29359" ry="4.29961" transform="matrix(0.00841625 0.999965 0.999988 -0.00493844 1003.73 274.036)" fill="#F04566"/>
<ellipse rx="4.7574" ry="6.21054" transform="matrix(0.00731976 0.999973 0.999984 -0.00567824 612.211 131.507)" fill="white"/>
<ellipse rx="4.75741" ry="6.21054" transform="matrix(0.00841625 0.999965 0.999988 -0.00493844 748.558 160.185)" fill="#FFEC00"/>
<ellipse rx="3.29359" ry="4.29961" transform="matrix(0.00841625 0.999965 0.999988 -0.00493844 773.971 277.827)" fill="#F04566"/>
<ellipse rx="2.56168" ry="3.34414" transform="matrix(0.00841625 0.999965 0.999988 -0.00493844 980.69 374.422)" fill="#40FFAE"/>
<ellipse cx="95.542" cy="209.094" rx="5.4705" ry="3.19978" fill="#FFEC00"/>
<ellipse cx="37.4705" cy="227.8" rx="5.4705" ry="3.19978" fill="#295CFF"/>
<ellipse cx="128.365" cy="116.054" rx="3.78727" ry="2.21523" fill="#F04566"/>
<ellipse cx="269.757" cy="210.571" rx="2.94566" ry="1.72296" fill="#40FFAE"/>
<ellipse rx="2.88302" ry="6.21048" transform="matrix(0.0120787 -0.999927 0.999994 0.00344092 439.696 169.909)" fill="white"/>
<ellipse rx="2.88306" ry="6.21049" transform="matrix(0.0138878 -0.999904 0.999996 0.00299261 466.633 96.5571)" fill="#FFEC00"/>
<ellipse rx="2.88306" ry="6.21049" transform="matrix(0.0138878 -0.999904 0.999996 0.00299261 650.749 113.631)" fill="#295CFF"/>
<ellipse rx="1.99597" ry="4.29957" transform="matrix(0.0138878 -0.999904 0.999996 0.00299261 578.733 70.3939)" fill="#F04566"/>
<ellipse rx="2.88302" ry="6.21048" transform="matrix(0.0120787 -0.999927 0.999994 0.00344092 187.211 156.763)" fill="white"/>
<ellipse rx="2.88306" ry="6.21049" transform="matrix(0.0138878 -0.999904 0.999996 0.00299261 323.558 139.385)" fill="#FFEC00"/>
<ellipse rx="1.99597" ry="4.29957" transform="matrix(0.0138878 -0.999904 0.999996 0.00299261 348.971 68.0969)" fill="#F04566"/>
<ellipse rx="1.55242" ry="3.34411" transform="matrix(0.0138878 -0.999904 0.999996 0.00299261 555.69 9.56235)" fill="#40FFAE"/>
</svg>
